<svg width="400" height="300" viewBox="0 0 400 300" xmlns="http://www.w3.org/2000/svg">
  <defs>
    <radialGradient id="flowerGradient1" cx="50%" cy="50%" r="50%">
      <stop offset="0%" style="stop-color:#ff6b35;stop-opacity:1" />
      <stop offset="50%" style="stop-color:#ff8c42;stop-opacity:1" />
      <stop offset="100%" style="stop-color:#ff4500;stop-opacity:1" />
    </radialGradient>
    <radialGradient id="flowerGradient2" cx="50%" cy="50%" r="50%">
      <stop offset="0%" style="stop-color:#ffa500;stop-opacity:1" />
      <stop offset="50%" style="stop-color:#ff7f00;stop-opacity:1" />
      <stop offset="100%" style="stop-color:#ff6347;stop-opacity:1" />
    </radialGradient>
    <radialGradient id="centerGradient" cx="50%" cy="50%" r="50%">
      <stop offset="0%" style="stop-color:#ffff00;stop-opacity:1" />
      <stop offset="100%" style="stop-color:#ffa500;stop-opacity:1" />
    </radialGradient>
  </defs>
  
  <!-- Background -->
  <rect width="400" height="300" fill="#f0f8ff" opacity="0.3"/>
  
  <!-- Large flower 1 -->
  <g transform="translate(80,60)">
    <!-- Petals -->
    <ellipse cx="0" cy="-25" rx="12" ry="30" fill="url(#flowerGradient1)" transform="rotate(0)"/>
    <ellipse cx="0" cy="-25" rx="12" ry="30" fill="url(#flowerGradient1)" transform="rotate(45)"/>
    <ellipse cx="0" cy="-25" rx="12" ry="30" fill="url(#flowerGradient1)" transform="rotate(90)"/>
    <ellipse cx="0" cy="-25" rx="12" ry="30" fill="url(#flowerGradient1)" transform="rotate(135)"/>
    <ellipse cx="0" cy="-25" rx="12" ry="30" fill="url(#flowerGradient1)" transform="rotate(180)"/>
    <ellipse cx="0" cy="-25" rx="12" ry="30" fill="url(#flowerGradient1)" transform="rotate(225)"/>
    <ellipse cx="0" cy="-25" rx="12" ry="30" fill="url(#flowerGradient1)" transform="rotate(270)"/>
    <ellipse cx="0" cy="-25" rx="12" ry="30" fill="url(#flowerGradient1)" transform="rotate(315)"/>
    <!-- Center -->
    <circle cx="0" cy="0" r="15" fill="url(#centerGradient)"/>
    <!-- Leaves -->
    <ellipse cx="-35" cy="20" rx="8" ry="20" fill="#228b22" transform="rotate(-30)"/>
    <ellipse cx="35" cy="25" rx="6" ry="18" fill="#32cd32" transform="rotate(45)"/>
  </g>
  
  <!-- Large flower 2 -->
  <g transform="translate(280,80)">
    <!-- Petals -->
    <ellipse cx="0" cy="-22" rx="10" ry="28" fill="url(#flowerGradient2)" transform="rotate(0)"/>
    <ellipse cx="0" cy="-22" rx="10" ry="28" fill="url(#flowerGradient2)" transform="rotate(40)"/>
    <ellipse cx="0" cy="-22" rx="10" ry="28" fill="url(#flowerGradient2)" transform="rotate(80)"/>
    <ellipse cx="0" cy="-22" rx="10" ry="28" fill="url(#flowerGradient2)" transform="rotate(120)"/>
    <ellipse cx="0" cy="-22" rx="10" ry="28" fill="url(#flowerGradient2)" transform="rotate(160)"/>
    <ellipse cx="0" cy="-22" rx="10" ry="28" fill="url(#flowerGradient2)" transform="rotate(200)"/>
    <ellipse cx="0" cy="-22" rx="10" ry="28" fill="url(#flowerGradient2)" transform="rotate(240)"/>
    <ellipse cx="0" cy="-22" rx="10" ry="28" fill="url(#flowerGradient2)" transform="rotate(280)"/>
    <ellipse cx="0" cy="-22" rx="10" ry="28" fill="url(#flowerGradient2)" transform="rotate(320)"/>
    <!-- Center -->
    <circle cx="0" cy="0" r="12" fill="url(#centerGradient)"/>
    <!-- Leaves -->
    <ellipse cx="-30" cy="18" rx="7" ry="16" fill="#228b22" transform="rotate(-45)"/>
    <ellipse cx="32" cy="22" rx="5" ry="15" fill="#32cd32" transform="rotate(30)"/>
  </g>
  
  <!-- Medium flower 3 -->
  <g transform="translate(150,180)">
    <!-- Petals -->
    <ellipse cx="0" cy="-18" rx="8" ry="22" fill="url(#flowerGradient1)" transform="rotate(0)"/>
    <ellipse cx="0" cy="-18" rx="8" ry="22" fill="url(#flowerGradient1)" transform="rotate(60)"/>
    <ellipse cx="0" cy="-18" rx="8" ry="22" fill="url(#flowerGradient1)" transform="rotate(120)"/>
    <ellipse cx="0" cy="-18" rx="8" ry="22" fill="url(#flowerGradient1)" transform="rotate(180)"/>
    <ellipse cx="0" cy="-18" rx="8" ry="22" fill="url(#flowerGradient1)" transform="rotate(240)"/>
    <ellipse cx="0" cy="-18" rx="8" ry="22" fill="url(#flowerGradient1)" transform="rotate(300)"/>
    <!-- Center -->
    <circle cx="0" cy="0" r="10" fill="url(#centerGradient)"/>
    <!-- Leaves -->
    <ellipse cx="-25" cy="15" rx="6" ry="14" fill="#228b22" transform="rotate(-20)"/>
    <ellipse cx="28" cy="18" rx="4" ry="12" fill="#32cd32" transform="rotate(60)"/>
  </g>
  
  <!-- Small flower 4 -->
  <g transform="translate(320,200)">
    <!-- Petals -->
    <ellipse cx="0" cy="-12" rx="6" ry="16" fill="url(#flowerGradient2)" transform="rotate(0)"/>
    <ellipse cx="0" cy="-12" rx="6" ry="16" fill="url(#flowerGradient2)" transform="rotate(72)"/>
    <ellipse cx="0" cy="-12" rx="6" ry="16" fill="url(#flowerGradient2)" transform="rotate(144)"/>
    <ellipse cx="0" cy="-12" rx="6" ry="16" fill="url(#flowerGradient2)" transform="rotate(216)"/>
    <ellipse cx="0" cy="-12" rx="6" ry="16" fill="url(#flowerGradient2)" transform="rotate(288)"/>
    <!-- Center -->
    <circle cx="0" cy="0" r="7" fill="url(#centerGradient)"/>
    <!-- Leaves -->
    <ellipse cx="-18" cy="12" rx="4" ry="10" fill="#228b22" transform="rotate(-30)"/>
    <ellipse cx="20" cy="14" rx="3" ry="8" fill="#32cd32" transform="rotate(45)"/>
  </g>
  
  <!-- Small flower 5 -->
  <g transform="translate(50,220)">
    <!-- Petals -->
    <ellipse cx="0" cy="-10" rx="5" ry="14" fill="url(#flowerGradient1)" transform="rotate(0)"/>
    <ellipse cx="0" cy="-10" rx="5" ry="14" fill="url(#flowerGradient1)" transform="rotate(60)"/>
    <ellipse cx="0" cy="-10" rx="5" ry="14" fill="url(#flowerGradient1)" transform="rotate(120)"/>
    <ellipse cx="0" cy="-10" rx="5" ry="14" fill="url(#flowerGradient1)" transform="rotate(180)"/>
    <ellipse cx="0" cy="-10" rx="5" ry="14" fill="url(#flowerGradient1)" transform="rotate(240)"/>
    <ellipse cx="0" cy="-10" rx="5" ry="14" fill="url(#flowerGradient1)" transform="rotate(300)"/>
    <!-- Center -->
    <circle cx="0" cy="0" r="6" fill="url(#centerGradient)"/>
    <!-- Leaves -->
    <ellipse cx="-15" cy="10" rx="3" ry="8" fill="#228b22" transform="rotate(-45)"/>
    <ellipse cx="16" cy="12" rx="2" ry="6" fill="#32cd32" transform="rotate(30)"/>
  </g>
  
  <!-- Additional small flowers -->
  <g transform="translate(200,50)">
    <ellipse cx="0" cy="-8" rx="4" ry="12" fill="url(#flowerGradient2)" transform="rotate(0)"/>
    <ellipse cx="0" cy="-8" rx="4" ry="12" fill="url(#flowerGradient2)" transform="rotate(45)"/>
    <ellipse cx="0" cy="-8" rx="4" ry="12" fill="url(#flowerGradient2)" transform="rotate(90)"/>
    <ellipse cx="0" cy="-8" rx="4" ry="12" fill="url(#flowerGradient2)" transform="rotate(135)"/>
    <ellipse cx="0" cy="-8" rx="4" ry="12" fill="url(#flowerGradient2)" transform="rotate(180)"/>
    <ellipse cx="0" cy="-8" rx="4" ry="12" fill="url(#flowerGradient2)" transform="rotate(225)"/>
    <ellipse cx="0" cy="-8" rx="4" ry="12" fill="url(#flowerGradient2)" transform="rotate(270)"/>
    <ellipse cx="0" cy="-8" rx="4" ry="12" fill="url(#flowerGradient2)" transform="rotate(315)"/>
    <circle cx="0" cy="0" r="5" fill="url(#centerGradient)"/>
  </g>
  
  <g transform="translate(120,120)">
    <ellipse cx="0" cy="-6" rx="3" ry="10" fill="url(#flowerGradient1)" transform="rotate(0)"/>
    <ellipse cx="0" cy="-6" rx="3" ry="10" fill="url(#flowerGradient1)" transform="rotate(60)"/>
    <ellipse cx="0" cy="-6" rx="3" ry="10" fill="url(#flowerGradient1)" transform="rotate(120)"/>
    <ellipse cx="0" cy="-6" rx="3" ry="10" fill="url(#flowerGradient1)" transform="rotate(180)"/>
    <ellipse cx="0" cy="-6" rx="3" ry="10" fill="url(#flowerGradient1)" transform="rotate(240)"/>
    <ellipse cx="0" cy="-6" rx="3" ry="10" fill="url(#flowerGradient1)" transform="rotate(300)"/>
    <circle cx="0" cy="0" r="4" fill="url(#centerGradient)"/>
  </g>
</svg>